<svg width="12" height="12" viewBox="0 0 12 12" fill="none" xmlns="http://www.w3.org/2000/svg">
<path d="M10.8 6.3C11.46 6.3 12 6.84 12 7.5V10.8C12 11.46 11.46 12 10.8 12H7.5C6.84 12 6.3 11.46 6.3 10.8V7.5C6.3 6.84 6.84 6.3 7.5 6.3H10.8ZM11.1 10.8V7.5C11.1 7.3374 10.9626 7.2 10.8 7.2H7.5C7.3374 7.2 7.2 7.3374 7.2 7.5V10.8C7.2 10.9626 7.3374 11.1 7.5 11.1H10.8C10.9626 11.1 11.1 10.9626 11.1 10.8ZM10.8 1.2022e-08C11.46 1.2022e-08 12 0.54 12 1.2V4.5C12 5.16 11.46 5.7 10.8 5.7H7.5C6.84 5.7 6.3 5.16 6.3 4.5V1.2C6.3 0.54 6.84 1.2022e-08 7.5 1.2022e-08H10.8ZM11.1 4.5V1.2C11.1 1.0374 10.9626 0.9 10.8 0.9H7.5C7.3374 0.9 7.2 1.0374 7.2 1.2V4.5C7.2 4.6626 7.3374 4.8 7.5 4.8H10.8C10.9626 4.8 11.1 4.6626 11.1 4.5ZM1.2 1.2022e-08H4.5C5.16 1.2022e-08 5.7 0.54 5.7 1.2V4.5C5.7 5.16 5.16 5.7 4.5 5.7H1.2C0.54 5.7 1.2022e-08 5.16 1.2022e-08 4.5V1.2C1.2022e-08 0.54 0.54 1.2022e-08 1.2 1.2022e-08ZM4.8 4.5V1.2C4.8 1.0374 4.6626 0.9 4.5 0.9H1.2C1.0374 0.9 0.9 1.0374 0.9 1.2V4.5C0.9 4.6626 1.0374 4.8 1.2 4.8H4.5C4.6626 4.8 4.8 4.6626 4.8 4.5ZM4.5 6.3C5.16 6.3 5.7 6.84 5.7 7.5V10.8C5.7 11.46 5.16 12 4.5 12H1.2C0.54 12 1.2022e-08 11.46 1.2022e-08 10.8V7.5C1.2022e-08 6.84 0.54 6.3 1.2 6.3H4.5ZM4.8 10.8V7.5C4.8 7.3374 4.6626 7.2 4.5 7.2H1.2C1.0374 7.2 0.9 7.3374 0.9 7.5V10.8C0.9 10.9626 1.0374 11.1 1.2 11.1H4.5C4.6626 11.1 4.8 10.9626 4.8 10.8Z" fill="#999999"/>
</svg>
