<svg width="10" height="12" viewBox="0 0 10 12" fill="none" xmlns="http://www.w3.org/2000/svg">
<path d="M6.875 9.2H6.04167V8.8H6.66667V0.4H0.416667V1H0V0.2C0 0.146957 0.0219497 0.096086 0.0610198 0.0585787C0.10009 0.0210715 0.15308 0 0.208334 0H6.875C6.93025 0 6.98324 0.0210715 7.02231 0.0585787C7.06138 0.096086 7.08333 0.146957 7.08333 0.2V9C7.08333 9.05304 7.06138 9.10391 7.02231 9.14142C6.98324 9.17893 6.93025 9.2 6.875 9.2ZM8.33333 7.8H7.5V7.4H8.125V1.8H8.54167V7.6C8.54167 7.65304 8.51972 7.70391 8.48065 7.74142C8.44158 7.77893 8.38859 7.8 8.33333 7.8ZM8.125 1H8.54167V1.4H8.125V1Z" transform="translate(1.45837 1.40039)" fill="#6A70E4"/>
<path d="M10 2H9.58333V0.4H3.33333V1H2.91667V0.2C2.91667 0.146957 2.93862 0.0960859 2.97769 0.0585786C3.01676 0.0210714 3.06975 0 3.125 0H9.79167C9.84692 0 9.89991 0.0210714 9.93898 0.0585786C9.97805 0.0960859 10 0.146957 10 0.2V2ZM6.875 12H0.208333C0.15308 12 0.100089 11.9789 0.0610193 11.9414C0.0219492 11.9039 0 11.853 0 11.8V3C0 2.94696 0.0219492 2.89609 0.0610193 2.85858C0.100089 2.82107 0.15308 2.8 0.208333 2.8H4.16667V3.2H0.416667V11.6H6.66667V3.2H5.41667V2.8H6.875C6.93025 2.8 6.98324 2.82107 7.02231 2.85858C7.06138 2.89609 7.08333 2.94696 7.08333 3V11.8C7.08333 11.853 7.06138 11.9039 7.02231 11.9414C6.98324 11.9789 6.93025 12 6.875 12Z" fill="#6A70E4"/>
<path d="M3.54167 0H3.95833V0.4H3.54167V0ZM0 3.8H5V4.2H0V3.8ZM0 5H5V5.4H0V5ZM3.95833 6.2H5V6.6H3.95833V6.2ZM3.125 6.2H3.54167V6.6H3.125V6.2ZM0 6.2H2.70833V6.6H0V6.2ZM0 7.4H5V7.8H0V7.4ZM0 1.4H5V1.8H0V1.4ZM2.29167 2.6H5V3H2.29167V2.6ZM1.45833 2.6H1.875V3H1.45833V2.6ZM0 2.6H1.04167V3H0V2.6Z" transform="translate(1.04163 2.80078)" fill="#6A70E4"/>
</svg>
